<svg width="34" height="34" viewBox="0 0 34 34" fill="none" xmlns="http://www.w3.org/2000/svg">
<rect width="34" height="34" rx="4"  fill-opacity="0.1"/>
<path d="M17 26C14.4833 26 12.3542 25.6125 10.6125 24.8375C8.87083 24.0625 8 23.1167 8 22V12C8 10.9 8.87917 9.95833 10.6375 9.175C12.3958 8.39167 14.5167 8 17 8C19.4833 8 21.6042 8.39167 23.3625 9.175C25.1208 9.95833 26 10.9 26 12V22C26 23.1167 25.1292 24.0625 23.3875 24.8375C21.6458 25.6125 19.5167 26 17 26ZM17 14.025C18.4833 14.025 19.975 13.8125 21.475 13.3875C22.975 12.9625 23.8167 12.5083 24 12.025C23.8167 11.5417 22.9792 11.0833 21.4875 10.65C19.9958 10.2167 18.5 10 17 10C15.4833 10 13.9958 10.2125 12.5375 10.6375C11.0792 11.0625 10.2333 11.525 10 12.025C10.2333 12.525 11.0792 12.9833 12.5375 13.4C13.9958 13.8167 15.4833 14.025 17 14.025ZM17 19C17.7 19 18.375 18.9667 19.025 18.9C19.675 18.8333 20.2958 18.7375 20.8875 18.6125C21.4792 18.4875 22.0375 18.3333 22.5625 18.15C23.0875 17.9667 23.5667 17.7583 24 17.525V14.525C23.5667 14.7583 23.0875 14.9667 22.5625 15.15C22.0375 15.3333 21.4792 15.4875 20.8875 15.6125C20.2958 15.7375 19.675 15.8333 19.025 15.9C18.375 15.9667 17.7 16 17 16C16.3 16 15.6167 15.9667 14.95 15.9C14.2833 15.8333 13.6542 15.7375 13.0625 15.6125C12.4708 15.4875 11.9167 15.3333 11.4 15.15C10.8833 14.9667 10.4167 14.7583 10 14.525V17.525C10.4167 17.7583 10.8833 17.9667 11.4 18.15C11.9167 18.3333 12.4708 18.4875 13.0625 18.6125C13.6542 18.7375 14.2833 18.8333 14.95 18.9C15.6167 18.9667 16.3 19 17 19ZM17 24C17.7667 24 18.5458 23.9417 19.3375 23.825C20.1292 23.7083 20.8583 23.5542 21.525 23.3625C22.1917 23.1708 22.75 22.9542 23.2 22.7125C23.65 22.4708 23.9167 22.225 24 21.975V19.525C23.5667 19.7583 23.0875 19.9667 22.5625 20.15C22.0375 20.3333 21.4792 20.4875 20.8875 20.6125C20.2958 20.7375 19.675 20.8333 19.025 20.9C18.375 20.9667 17.7 21 17 21C16.3 21 15.6167 20.9667 14.95 20.9C14.2833 20.8333 13.6542 20.7375 13.0625 20.6125C12.4708 20.4875 11.9167 20.3333 11.4 20.15C10.8833 19.9667 10.4167 19.7583 10 19.525V22C10.0833 22.25 10.3458 22.4917 10.7875 22.725C11.2292 22.9583 11.7833 23.1708 12.45 23.3625C13.1167 23.5542 13.85 23.7083 14.65 23.825C15.45 23.9417 16.2333 24 17 24Z" />
</svg>
