<svg width="34" height="36" viewBox="0 0 34 36" fill="none" xmlns="http://www.w3.org/2000/svg">
<rect width="34" height="35.05" rx="4"  fill-opacity="0.1"/>
<path d="M17 7.5C12.5817 7.5 9 8.8431 9 10.5C9 12.1569 12.5817 13.5 17 13.5C21.4183 13.5 25 12.1569 25 10.5C25 8.8431 21.4183 7.5 17 7.5Z" />
<path d="M25 14C25 15.6569 21.4183 17 17 17C12.5817 17 9 15.6569 9 14V17.5C9 19.1569 12.5817 20.5 17 20.5C21.4183 20.5 25 19.1569 25 17.5V14Z" />
<path d="M25 21C25 22.6569 21.4183 24 17 24C12.5817 24 9 22.6569 9 21V24.5C9 26.1569 12.5817 27.5 17 27.5C21.4183 27.5 25 26.1569 25 24.5V21Z" />
</svg>
