<svg width="32" height="32" viewBox="0 0 32 32" fill="none" xmlns="http://www.w3.org/2000/svg">
<rect width="32" height="32" rx="8"  fill-opacity="0.2"/>
<path d="M9.33341 22.6667C8.87508 22.6667 8.48272 22.5035 8.15633 22.1771C7.82994 21.8507 7.66675 21.4583 7.66675 21V11C7.66675 10.5417 7.82994 10.1493 8.15633 9.82292C8.48272 9.49653 8.87508 9.33333 9.33341 9.33333H22.6667C23.1251 9.33333 23.5174 9.49653 23.8438 9.82292C24.1702 10.1493 24.3334 10.5417 24.3334 11V21C24.3334 21.4583 24.1702 21.8507 23.8438 22.1771C23.5174 22.5035 23.1251 22.6667 22.6667 22.6667H9.33341ZM9.33341 21H22.6667V12.6667H9.33341V21ZM12.2501 20.1667L11.0834 19L13.2292 16.8333L11.0626 14.6667L12.2501 13.5L15.5834 16.8333L12.2501 20.1667ZM16.0001 20.1667V18.5H21.0001V20.1667H16.0001Z" />
</svg>
