<svg width="31" height="38" viewBox="0 0 31 38" fill="none" xmlns="http://www.w3.org/2000/svg">
<rect width="31" height="38" rx="4"  fill-opacity="0.1"/>
<path d="M10 30C9.45 30 8.97917 29.8042 8.5875 29.4125C8.19583 29.0208 8 28.55 8 28V10C8 9.45 8.19583 8.97917 8.5875 8.5875C8.97917 8.19583 9.45 8 10 8H20C20.55 8 21.0208 8.19583 21.4125 8.5875C21.8042 8.97917 22 9.45 22 10V13.1C22.3 13.2167 22.5417 13.4 22.725 13.65C22.9083 13.9 23 14.1833 23 14.5V16.5C23 16.8167 22.9083 17.1 22.725 17.35C22.5417 17.6 22.3 17.7833 22 17.9V28C22 28.55 21.8042 29.0208 21.4125 29.4125C21.0208 29.8042 20.55 30 20 30H10ZM10 28H20V10H10V28ZM10 28V10V28ZM15 13C15.2833 13 15.5208 12.9042 15.7125 12.7125C15.9042 12.5208 16 12.2833 16 12C16 11.7167 15.9042 11.4792 15.7125 11.2875C15.5208 11.0958 15.2833 11 15 11C14.7167 11 14.4792 11.0958 14.2875 11.2875C14.0958 11.4792 14 11.7167 14 12C14 12.2833 14.0958 12.5208 14.2875 12.7125C14.4792 12.9042 14.7167 13 15 13Z" />
</svg>
